<svg width="90" height="26" viewBox="0 0 90 26" fill="none" xmlns="http://www.w3.org/2000/svg">
<path d="M9.77488 12.266C9.77488 11.5033 9.67088 10.9573 9.46288 10.628C9.25488 10.2987 8.92554 10.0993 8.47488 10.03C8.02421 9.96067 7.42621 9.94333 6.68088 9.978L4.78288 10.056V16.01C4.78288 16.478 4.77421 16.8767 4.75688 17.206C4.75688 17.5353 4.73954 17.8127 4.70488 18.038L9.67088 17.96C10.4335 17.9427 11.0922 17.8213 11.6469 17.596C12.2015 17.3533 12.6349 16.9373 12.9469 16.348C13.2589 15.7587 13.4149 14.9527 13.4149 13.93H14.2989L14.1429 19H0.726875V18.142C1.38554 18.1073 1.83621 17.96 2.07888 17.7C2.32154 17.4227 2.45154 17.05 2.46888 16.582C2.50354 16.0967 2.52088 15.5507 2.52088 14.944V3.712C2.52088 3.36533 2.52954 3.036 2.54688 2.724C2.56421 2.39467 2.58154 2.1 2.59888 1.84C2.28688 1.85733 1.97488 1.87467 1.66288 1.892C1.35088 1.90933 1.03888 1.92667 0.726875 1.944V0.799999H13.2329L13.3629 5.35H12.5049C12.5049 4.32733 12.3489 3.556 12.0369 3.036C11.7249 2.49867 11.3002 2.14333 10.7629 1.97C10.2429 1.77933 9.65354 1.69267 8.99488 1.71L6.75888 1.762C6.11754 1.77933 5.65821 1.90067 5.38088 2.126C5.10354 2.35133 4.93021 2.68933 4.86088 3.14C4.80888 3.57333 4.78288 4.14533 4.78288 4.856V9.016L9.67088 9.042L9.48888 6.806H10.6329V12.266H9.77488ZM21.9447 19.416C21.078 19.416 20.3067 19.2947 19.6307 19.052C18.9547 18.8267 18.4 18.5667 17.9667 18.272L18.0707 19.182H16.9787L16.8227 14.71H17.6287C17.6634 15.4207 17.8627 16.062 18.2267 16.634C18.5907 17.1887 19.0587 17.622 19.6307 17.934C20.2027 18.246 20.818 18.402 21.4767 18.402C21.9274 18.402 22.3694 18.3327 22.8027 18.194C23.236 18.038 23.6 17.8127 23.8947 17.518C24.1894 17.206 24.3367 16.816 24.3367 16.348C24.3367 15.8627 24.1894 15.464 23.8947 15.152C23.6174 14.8227 23.2447 14.5367 22.7767 14.294C22.3087 14.0513 21.806 13.826 21.2687 13.618C20.7487 13.41 20.2287 13.1933 19.7087 12.968C19.1887 12.7427 18.7034 12.474 18.2527 12.162C17.8194 11.85 17.4727 11.4687 17.2127 11.018C16.9527 10.5673 16.8227 10.0127 16.8227 9.354C16.8227 8.99 16.892 8.59133 17.0307 8.158C17.1694 7.72467 17.4034 7.31733 17.7327 6.936C18.062 6.53733 18.5127 6.21667 19.0847 5.974C19.6567 5.714 20.3847 5.584 21.2687 5.584C21.7367 5.584 22.2567 5.662 22.8287 5.818C23.4007 5.974 23.9554 6.26867 24.4927 6.702L24.4407 5.714H25.5327V10.264H24.7007C24.666 9.65733 24.5274 9.07667 24.2847 8.522C24.042 7.95 23.6867 7.482 23.2187 7.118C22.7507 6.73667 22.144 6.546 21.3987 6.546C20.6014 6.546 19.9774 6.74533 19.5267 7.144C19.076 7.54267 18.8507 8.002 18.8507 8.522C18.8507 9.05933 19.0154 9.51 19.3447 9.874C19.6914 10.2207 20.1334 10.524 20.6707 10.784C21.208 11.044 21.78 11.2953 22.3867 11.538C23.0454 11.8153 23.6867 12.1187 24.3107 12.448C24.9347 12.7773 25.446 13.1933 25.8447 13.696C26.2434 14.1813 26.4427 14.814 26.4427 15.594C26.4427 16.4607 26.2174 17.18 25.7667 17.752C25.3334 18.324 24.77 18.74 24.0767 19C23.4007 19.2773 22.69 19.416 21.9447 19.416ZM34.9939 19.416C33.8325 19.416 32.7579 19.156 31.7699 18.636C30.7992 18.0987 30.0192 17.336 29.4299 16.348C28.8579 15.3427 28.5719 14.138 28.5719 12.734C28.5719 11.8327 28.7365 10.9573 29.0659 10.108C29.3952 9.25867 29.8545 8.496 30.4439 7.82C31.0505 7.12667 31.7699 6.58067 32.6019 6.182C33.4339 5.78333 34.3525 5.584 35.3579 5.584C36.3285 5.584 37.1692 5.73133 37.8799 6.026C38.6079 6.32067 39.1712 6.71067 39.5699 7.196C39.9685 7.68133 40.1679 8.21 40.1679 8.782C40.1679 9.16333 40.0639 9.49267 39.8559 9.77C39.6479 10.03 39.3445 10.16 38.9459 10.16C38.5125 10.1773 38.2005 10.0473 38.0099 9.77C37.8365 9.47533 37.7499 9.21533 37.7499 8.99C37.7499 8.81667 37.7759 8.64333 37.8279 8.47C37.8799 8.27933 37.9839 8.106 38.1399 7.95C38.0012 7.534 37.7585 7.23067 37.4119 7.04C37.0652 6.832 36.7012 6.702 36.3199 6.65C35.9559 6.58067 35.6525 6.546 35.4099 6.546C34.2312 6.546 33.2345 7.02267 32.4199 7.976C31.6225 8.912 31.2239 10.2813 31.2239 12.084C31.2239 13.2453 31.4059 14.2767 31.7699 15.178C32.1512 16.0793 32.6799 16.79 33.3559 17.31C34.0319 17.8127 34.8119 18.064 35.6959 18.064C36.5105 18.064 37.2905 17.8473 38.0359 17.414C38.7812 16.9807 39.3619 16.452 39.7779 15.828L40.4539 16.348C40.0032 17.076 39.4572 17.6653 38.8159 18.116C38.1919 18.5667 37.5419 18.896 36.8659 19.104C36.2072 19.312 35.5832 19.416 34.9939 19.416ZM50.341 19C50.289 18.7053 50.2543 18.4453 50.237 18.22C50.2196 17.9947 50.1936 17.7607 50.159 17.518C49.5696 18.1073 48.9283 18.5753 48.235 18.922C47.559 19.2513 46.8396 19.416 46.077 19.416C44.7596 19.416 43.7803 19.1213 43.139 18.532C42.4976 17.9253 42.177 17.1887 42.177 16.322C42.177 15.5247 42.4196 14.84 42.905 14.268C43.4076 13.6787 44.049 13.202 44.829 12.838C45.6263 12.4567 46.4843 12.1793 47.403 12.006C48.339 11.8153 49.2403 11.7287 50.107 11.746V10.134C50.107 9.52733 50.055 8.95533 49.951 8.418C49.847 7.88067 49.6216 7.43867 49.275 7.092C48.9283 6.74533 48.3736 6.56333 47.611 6.546C47.1083 6.52867 46.5883 6.624 46.051 6.832C45.531 7.04 45.1496 7.39533 44.907 7.898C45.0456 8.03667 45.1323 8.20133 45.167 8.392C45.219 8.56533 45.245 8.73 45.245 8.886C45.245 9.094 45.1583 9.33667 44.985 9.614C44.8116 9.874 44.5083 9.99533 44.075 9.978C43.711 9.978 43.4336 9.85667 43.243 9.614C43.0523 9.354 42.957 9.05067 42.957 8.704C42.957 8.11467 43.1736 7.586 43.607 7.118C44.0576 6.65 44.673 6.27733 45.453 6C46.233 5.72267 47.117 5.584 48.105 5.584C49.561 5.584 50.6356 5.974 51.329 6.754C52.0223 7.51667 52.3603 8.73 52.343 10.394C52.343 11.0353 52.343 11.6853 52.343 12.344C52.343 12.9853 52.3343 13.6353 52.317 14.294C52.317 14.9353 52.317 15.5853 52.317 16.244C52.317 16.5213 52.3083 16.7987 52.291 17.076C52.2736 17.3533 52.2476 17.6653 52.213 18.012C52.525 17.9947 52.8283 17.9773 53.123 17.96C53.435 17.9427 53.747 17.9253 54.059 17.908V19H50.341ZM50.107 12.63C49.5176 12.6473 48.8936 12.7253 48.235 12.864C47.5936 12.9853 46.9956 13.176 46.441 13.436C45.9036 13.696 45.4616 14.0427 45.115 14.476C44.7856 14.892 44.6296 15.4033 44.647 16.01C44.6816 16.6513 44.8896 17.1367 45.271 17.466C45.6696 17.778 46.1376 17.934 46.675 17.934C47.3856 17.934 48.001 17.804 48.521 17.544C49.0583 17.2667 49.587 16.8853 50.107 16.4C50.0896 16.2093 50.081 16.0013 50.081 15.776C50.081 15.5507 50.081 15.3167 50.081 15.074C50.081 14.9873 50.081 14.71 50.081 14.242C50.0983 13.774 50.107 13.2367 50.107 12.63ZM55.6092 25.63V24.85C56.1466 24.85 56.5192 24.7113 56.7272 24.434C56.9352 24.174 57.0566 23.8013 57.0912 23.316C57.1259 22.848 57.1432 22.302 57.1432 21.678L57.1952 9.12C57.1952 8.84267 57.1952 8.56533 57.1952 8.288C57.2126 8.01067 57.2472 7.72467 57.2992 7.43C56.9872 7.44733 56.6752 7.46467 56.3632 7.482C56.0686 7.49933 55.7652 7.51667 55.4532 7.534V6.442C56.2159 6.442 56.7879 6.40733 57.1692 6.338C57.5679 6.26867 57.8539 6.182 58.0272 6.078C58.2179 5.974 58.3739 5.86133 58.4952 5.74H59.2752C59.2926 5.91333 59.3099 6.12133 59.3272 6.364C59.3446 6.58933 59.3619 6.84933 59.3792 7.144C59.8992 6.676 60.5146 6.30333 61.2252 6.026C61.9532 5.73133 62.6812 5.584 63.4092 5.584C64.4146 5.584 65.3506 5.844 66.2172 6.364C67.0839 6.884 67.7859 7.62933 68.3232 8.6C68.8606 9.55333 69.1292 10.6973 69.1292 12.032C69.1292 13.5053 68.8172 14.7967 68.1932 15.906C67.5866 17.0153 66.7806 17.882 65.7752 18.506C64.7699 19.1127 63.6779 19.416 62.4992 19.416C61.8926 19.416 61.3292 19.338 60.8092 19.182C60.3066 19.0433 59.8299 18.8353 59.3792 18.558V22.874C59.3792 23.2207 59.3706 23.524 59.3532 23.784C59.3532 24.0613 59.3272 24.3473 59.2752 24.642C59.5526 24.6247 59.8212 24.6073 60.0812 24.59C60.3586 24.59 60.6359 24.5813 60.9132 24.564V25.63H55.6092ZM62.4472 18.376C63.2792 18.376 63.9899 18.1247 64.5792 17.622C65.1859 17.102 65.6452 16.4 65.9572 15.516C66.2866 14.6147 66.4512 13.592 66.4512 12.448C66.4512 11.512 66.3126 10.6193 66.0352 9.77C65.7752 8.90333 65.3506 8.20133 64.7612 7.664C64.1892 7.12667 63.4266 6.858 62.4732 6.858C61.8839 6.858 61.3119 7.00533 60.7572 7.3C60.2199 7.57733 59.7692 7.91533 59.4052 8.314C59.4052 8.38333 59.4052 8.48733 59.4052 8.626C59.4226 8.74733 59.4312 8.97267 59.4312 9.302C59.4312 9.614 59.4312 10.0907 59.4312 10.732C59.4312 11.356 59.4226 12.2053 59.4052 13.28C59.4052 14.3547 59.4052 15.7153 59.4052 17.362C59.8386 17.6913 60.3066 17.9427 60.8092 18.116C61.3292 18.2893 61.8752 18.376 62.4472 18.376ZM77.6489 19.416C76.4529 19.416 75.3696 19.1387 74.3989 18.584C73.4456 18.012 72.6916 17.2147 72.1369 16.192C71.5822 15.152 71.3049 13.93 71.3049 12.526C71.3049 11.3127 71.5736 10.1773 72.1109 9.12C72.6656 8.06267 73.4369 7.21333 74.4249 6.572C75.4129 5.91333 76.5569 5.584 77.8569 5.584C78.5849 5.584 79.2609 5.70533 79.8849 5.948C80.5262 6.17333 81.0896 6.52867 81.5749 7.014C82.0602 7.482 82.4416 8.08 82.7189 8.808C82.9962 9.51867 83.1349 10.3593 83.1349 11.33L73.9829 11.486C73.9829 12.8033 74.1216 13.9647 74.3989 14.97C74.6936 15.958 75.1616 16.7293 75.8029 17.284C76.4442 17.8213 77.2676 18.09 78.2729 18.09C78.8102 18.09 79.3562 17.9947 79.9109 17.804C80.4829 17.6133 81.0116 17.3533 81.4969 17.024C81.9822 16.6947 82.3722 16.3307 82.6669 15.932L83.2909 16.452C82.8229 17.18 82.2596 17.7607 81.6009 18.194C80.9422 18.6273 80.2662 18.9393 79.5729 19.13C78.8796 19.3207 78.2382 19.416 77.6489 19.416ZM74.0609 10.394H80.6909C80.6909 9.77 80.5956 9.172 80.4049 8.6C80.2316 8.01067 79.9369 7.534 79.5209 7.17C79.1049 6.78867 78.5589 6.598 77.8829 6.598C76.8776 6.598 76.0369 6.90133 75.3609 7.508C74.7022 8.09733 74.2689 9.05933 74.0609 10.394ZM87.4767 19.416C87.078 19.416 86.7227 19.26 86.4107 18.948C86.116 18.6187 85.9687 18.22 85.9687 17.752C85.9687 17.284 86.1247 16.8853 86.4367 16.556C86.7487 16.2267 87.104 16.062 87.5027 16.062C87.936 16.062 88.2914 16.2267 88.5687 16.556C88.8634 16.8853 89.0107 17.284 89.0107 17.752C89.0107 18.22 88.8547 18.6187 88.5427 18.948C88.2307 19.26 87.8754 19.416 87.4767 19.416Z" fill="#2E2E2E"/>
</svg>
